<svg width="24" height="24" viewBox="0 0 24 24" fill="none" xmlns="http://www.w3.org/2000/svg">
<g clip-path="url(#clip0_1_23)">
<path d="M12 6C13.1046 6 14 5.10457 14 4C14 2.89543 13.1046 2 12 2C10.8954 2 10 2.89543 10 4C10 5.10457 10.8954 6 12 6Z" fill="currentColor"/>
<path d="M19 13V11C17.46 11.02 15.91 10.25 14.93 9.17004L13.64 7.74004C13.47 7.55004 13.26 7.40004 13.03 7.29004C13.02 7.29004 13.02 7.28004 13.01 7.28004H13C12.63 7.07004 12.22 6.97004 11.75 7.03004C10.73 7.15004 10 8.07004 10 9.10004V17H17V22H19V14.5H14V11.05C15.29 12.12 17.25 12.99 19 13ZM12.83 18C12.42 19.16 11.31 20 10 20C8.34 20 7 18.66 7 17C7 15.69 7.84 14.59 9 14.17V12.1C6.72 12.56 5 14.58 5 17C5 19.76 7.24 22 10 22C12.42 22 14.44 20.28 14.9 18H12.83Z" fill="currentColor"/>
</g>
<defs>
<clipPath id="clip0_1_23">
<rect width="24" height="24" fill="none"/>
</clipPath>
</defs>
</svg>
